<?xml version="1.0" encoding="UTF-8"?>
<svg version="1.1" xmlns="http://www.w3.org/2000/svg" width="300" height="234">
<path d="M0 0 C99 0 198 0 300 0 C300 77.22 300 154.44 300 234 C201 234 102 234 0 234 C0 156.78 0 79.56 0 0 Z " fill="#FCFCFC" transform="translate(0,0)"/>
<path d="M0 0 C6.95218443 6.32016767 9.01804027 13.93116298 11.0625 22.875 C11.32611328 23.96683594 11.58972656 25.05867188 11.86132812 26.18359375 C13.75 34.1012987 13.75 34.1012987 13.75 36.5 C26.7558713 39.73222837 37.41900507 41.61093554 49.75 35.5 C49.51841468 33.04321091 49.51841468 33.04321091 48.75 30.5 C45.32831151 28.83118065 45.32831151 28.83118065 41.75 27.5 C39.43717413 24.03076119 39.32521414 22.57794425 39.75 18.5 C40.8125 16.5625 40.8125 16.5625 42.75 15.5 C49.08333333 15.83333333 49.08333333 15.83333333 51.75 18.5 C51.89141995 21.24443087 51.74481507 23.93126722 51.625 26.67578125 C51.75876388 29.69800898 52.47940946 31.77517888 53.75 34.5 C54.67683594 34.56058594 55.60367188 34.62117188 56.55859375 34.68359375 C57.75613281 34.76738281 58.95367187 34.85117188 60.1875 34.9375 C61.38246094 35.01871094 62.57742188 35.09992188 63.80859375 35.18359375 C66.75 35.5 66.75 35.5 67.75 36.5 C68.75807761 54.76399426 68.75807761 54.76399426 65.5 59.203125 C63.29901594 60.8342114 61.77694368 60.99080118 59.0625 61.1875 C58.25425781 61.25324219 57.44601563 61.31898437 56.61328125 61.38671875 C55.99839844 61.42410156 55.38351563 61.46148437 54.75 61.5 C55.37252274 65.24866956 56.46431961 68.40513988 58 71.875 C62.49916496 82.51175415 65.98641742 92.99502236 67.76220703 104.39746094 C68.34675531 108.36932825 68.34675531 108.36932825 70.75 111.5 C72.71774308 111.94919025 74.70008875 112.33539028 76.6875 112.6875 C86.21157772 114.77352587 94.62589861 119.84487326 100.75 127.5 C100.59155273 129.53320313 100.59155273 129.53320313 99.75 131.5 C97.11528639 133.36959022 94.5645584 134.93570702 91.75 136.5 C90.7585498 137.056875 89.76709961 137.61375 88.74560547 138.1875 C85.23518224 140.14170288 81.71321427 142.07358826 78.1875 144 C70.72472481 148.08333341 63.27162503 152.17349165 55.91015625 156.4375 C54.86609619 157.04013672 53.82203613 157.64277344 52.74633789 158.26367188 C50.79111591 159.39669059 48.84081045 160.53824893 46.89624023 161.68945312 C45.58635132 162.44645508 45.58635132 162.44645508 44.25 163.21875 C43.4971875 163.66154297 42.744375 164.10433594 41.96875 164.56054688 C39.4117463 165.64322186 37.49959152 165.6766903 34.75 165.5 C32.80194805 158.74675325 32.80194805 158.74675325 32.25 156.125 C32.085 155.58875 31.92 155.0525 31.75 154.5 C28.89882059 153.07441029 26.47223719 153.35882111 23.28341675 153.34178162 C22.61200531 153.33684364 21.94059387 153.33190566 21.24883664 153.32681805 C18.98864756 153.31140339 16.72848698 153.30307175 14.46826172 153.29467773 C12.85222115 153.28510232 11.2361831 153.27509244 9.62014771 153.26467896 C5.22372823 153.23758729 0.82729798 153.21660084 -3.56915903 153.19667697 C-8.16029238 153.17484365 -12.75139234 153.14744201 -17.34249878 153.12062073 C-26.04057549 153.07065787 -34.73867071 153.0257324 -43.43678367 152.98259836 C-53.33751013 152.93325665 -63.2382031 152.87832718 -73.13889718 152.82291877 C-93.50923359 152.70904359 -113.87960197 152.60221663 -134.25 152.5 C-135.91447587 145.77506108 -132.62395721 141.01650167 -129.33544922 135.27929688 C-121.85361276 123.014874 -111.65345605 115.00993159 -98.60717773 109.46411133 C-95.0143823 107.84131965 -93.46799128 106.99290251 -91.84375 103.3203125 C-91.6478125 102.38960938 -91.451875 101.45890625 -91.25 100.5 C-90.25 99.5 -90.25 99.5 -87.58616638 99.37974548 C-85.8041256 99.3830764 -85.8041256 99.3830764 -83.98608398 99.38647461 C-83.0056311 99.38625557 -83.0056311 99.38625557 -82.00537109 99.3860321 C-79.83557872 99.38673117 -77.66587121 99.39452322 -75.49609375 99.40234375 C-73.99536689 99.40420795 -72.49463943 99.40563184 -70.99391174 99.40663147 C-67.03681774 99.41045648 -63.07976022 99.4202866 -59.12268066 99.43133545 C-55.08765151 99.44154994 -51.05261647 99.44612917 -47.01757812 99.45117188 C-39.09503531 99.46190889 -31.17252219 99.4789851 -23.25 99.5 C-22.14746094 104.26855469 -22.14746094 104.26855469 -23.0703125 106.3515625 C-23.50085938 106.93679687 -23.93140625 107.52203125 -24.375 108.125 C-29.27667957 115.40200328 -33.34926616 122.54883269 -32.25 131.5 C-31.39477107 134.66434705 -30.45975727 135.35316991 -27.75 137.25 C-23.13933231 138.89666703 -19.08238195 138.71223672 -14.25 138.5 C-11.66115148 130.75858889 -9.09647872 123.00955206 -6.5625 115.25 C-6.35391357 114.62158203 -6.14532715 113.99316406 -5.93041992 113.34570312 C-5.31774609 111.49838785 -4.7153808 109.64766377 -4.11328125 107.796875 C-3.75532471 106.70729492 -3.39736816 105.61771484 -3.02856445 104.49511719 C-2.28549279 101.63653983 -1.93289431 99.43058244 -2.25 96.5 C-4.77480693 93.97519307 -6.38823034 93.94261367 -9.875 93.375 C-10.87789063 93.20742187 -11.88078125 93.03984375 -12.9140625 92.8671875 C-14.07035156 92.68542969 -14.07035156 92.68542969 -15.25 92.5 C-15.59885254 93.14965225 -15.94770508 93.7993045 -16.30712891 94.46864319 C-18.25 96.5 -18.25 96.5 -21.39990234 97.00120544 C-23.34823975 97.0014547 -23.34823975 97.0014547 -25.3359375 97.00170898 C-26.41201263 97.00981346 -26.41201263 97.00981346 -27.50982666 97.01808167 C-29.88197037 97.03059264 -32.2529059 97.01406366 -34.625 96.99609375 C-36.27262435 96.99624868 -37.92024906 96.99773674 -39.56787109 97.00050354 C-43.0213227 97.00188859 -46.47435952 96.98931227 -49.92773438 96.96655273 C-54.35664792 96.93816748 -58.78487212 96.94090386 -63.21383667 96.95364285 C-66.61618956 96.96059455 -70.01838282 96.95281662 -73.42071533 96.94038582 C-75.05380644 96.93586635 -76.68691465 96.93553884 -78.32000732 96.93945122 C-80.60171692 96.94235854 -82.88247329 96.92588084 -85.1640625 96.90405273 C-86.4629541 96.89864975 -87.7618457 96.89324677 -89.10009766 96.88768005 C-92.25 96.5 -92.25 96.5 -94.16943359 95.1309967 C-95.72628698 92.78109694 -95.66352769 91.2568513 -95.25 88.5 C-93.64472939 86.37800925 -92.74600523 85.59219807 -90.10493469 85.10127258 C-89.27664658 85.09016953 -88.44835846 85.07906647 -87.5949707 85.06762695 C-86.65422195 85.04783279 -85.71347321 85.02803864 -84.74421692 85.00764465 C-83.73163315 85.00125473 -82.71904938 84.99486481 -81.67578125 84.98828125 C-80.11732735 84.96135445 -80.11732735 84.96135445 -78.52738953 84.93388367 C-75.20580109 84.87965957 -71.88435734 84.84584572 -68.5625 84.8125 C-66.31182877 84.77933766 -64.06117666 84.74484903 -61.81054688 84.70898438 C-56.29049432 84.62392632 -50.77042331 84.55562777 -45.25 84.5 C-46.19875 83.7575 -47.1475 83.015 -48.125 82.25 C-51.21870187 79.66147775 -52.90930032 77.59194273 -53.57055664 73.53173828 C-53.65586173 66.96401489 -51.94197963 61.49847411 -49.6875 55.375 C-49.32398438 54.36381104 -48.96046875 53.35262207 -48.5859375 52.31079102 C-45.59034953 44.12185031 -42.26713595 36.24227744 -38.25 28.5 C-37.7864209 27.60595459 -37.7864209 27.60595459 -37.31347656 26.69384766 C-30.28323051 13.31496825 -18.26863357 -8.43167703 0 0 Z " fill="#030303" transform="translate(196.25,39.5)"/>
<path d="M0 0 C27.06 0 54.12 0 82 0 C82 63.03 82 126.06 82 191 C80.09610151 188.14415227 79.30537823 186.0688238 78.375 182.8125 C78.11460937 181.91144531 77.85421875 181.01039063 77.5859375 180.08203125 C77.39257812 179.39496094 77.19921875 178.70789063 77 178 C76.071875 178.515625 75.14375 179.03125 74.1875 179.5625 C71 181 71 181 68 180 C68 178.68 68 177.36 68 176 C68.63808594 175.68546875 69.27617187 175.3709375 69.93359375 175.046875 C70.75988281 174.61890625 71.58617187 174.1909375 72.4375 173.75 C73.67306641 173.12351563 73.67306641 173.12351563 74.93359375 172.484375 C77.16844475 171.17422901 77.16844475 171.17422901 77.78515625 168.828125 C77.85605469 168.22484375 77.92695313 167.6215625 78 167 C69.51165903 159.06984925 63.35329891 154.95451294 51.890625 152.80859375 C48.84209015 151.95582792 47.70071303 151.63498631 46 149 C45.296875 145.9453125 45.296875 145.9453125 44.75 142.125 C43.6223976 135.19587111 41.79101608 128.65377952 39.5625 122 C39.1298584 120.69313232 39.1298584 120.69313232 38.68847656 119.35986328 C37.04924894 114.57159312 35.19027848 110.17387874 32.65209961 105.7890625 C31.82319275 103.51492193 32.22925797 102.25117414 33 100 C33.62648437 99.95101562 34.25296875 99.90203125 34.8984375 99.8515625 C36.12433594 99.73941406 36.12433594 99.73941406 37.375 99.625 C38.18710937 99.55539063 38.99921875 99.48578125 39.8359375 99.4140625 C42.20334191 99.17107412 42.20334191 99.17107412 44 97 C45.12894168 90.00056161 45.10776051 83.07627371 45 76 C44.09636719 75.99742188 43.19273437 75.99484375 42.26171875 75.9921875 C32.65953654 75.67736185 32.65953654 75.67736185 29.6875 72.625 C28.89562662 68.44966763 28.91001733 64.62223567 29.1875 60.390625 C29.125625 59.60171875 29.06375 58.8128125 29 58 C25.77626323 55.85084215 24.73296326 55.61713197 21 56 C18.69253586 57.87773264 18.69253586 57.87773264 18.75 60.9375 C18.76482246 64.17282787 18.76482246 64.17282787 21 67 C22.98723268 67.70381157 24.98777953 68.3711811 27 69 C27.99 69.99 27.99 69.99 29 71 C28.89453125 73.48046875 28.89453125 73.48046875 28 76 C21.66815724 80.63273192 13.50069497 80.79252626 6 80 C-5.77189605 77.95271373 -5.77189605 77.95271373 -9 74 C-10.44658422 70.16297456 -11.32911849 66.16561853 -12.3125 62.1875 C-12.60189453 61.10662109 -12.89128906 60.02574219 -13.18945312 58.91210938 C-15.70312373 48.90044823 -15.70312373 48.90044823 -13 44 C-11.3125 42.875 -11.3125 42.875 -9 43 C-7.28670314 44.03444339 -5.5745957 45.07135943 -3.8828125 46.140625 C-0.80551398 47.54520109 1.82148006 46.77841305 5 46 C5.33 44.35 5.66 42.7 6 41 C5.37351563 40.51789062 4.74703125 40.03578125 4.1015625 39.5390625 C3.28429687 38.90742187 2.46703125 38.27578125 1.625 37.625 C0.81289062 36.99851563 0.00078125 36.37203125 -0.8359375 35.7265625 C-3 34 -3 34 -5 32 C-5.37440428 26.47753685 -4.74301123 22.2290337 -3 17 C1.52653703 17.29766343 5.65577262 17.64679086 9.8125 19.5625 C13.02494947 21.27407184 13.02494947 21.27407184 17 21 C17.50791521 15.66689031 16.34625913 13.13879419 13 9 C8.92289375 5.10409847 5.18781391 2.97136928 0 1 C0 0.67 0 0.34 0 0 Z " fill="#FDFDFD" transform="translate(218,0)"/>
<path d="M0 0 C0.99 0.33 1.98 0.66 3 1 C3 1.66 3 2.32 3 3 C4.1446875 2.505 4.1446875 2.505 5.3125 2 C8 1 8 1 11 1 C15.2470444 8.91494638 16.29610296 15.25878071 16.1953125 24.08984375 C16.1924826 25.03436905 16.18965271 25.97889435 16.18673706 26.95204163 C16.17560684 29.94732724 16.1505156 32.94230586 16.125 35.9375 C16.11496095 37.9772092 16.10583672 40.01692312 16.09765625 42.05664062 C16.07569096 47.0378774 16.04121076 52.01888678 16 57 C-9.41703995 57.07009448 -34.8340654 57.12299038 -60.25118256 57.15543652 C-72.05290458 57.17090253 -83.85456653 57.19198707 -95.65625 57.22631836 C-105.94311135 57.25622873 -116.2299292 57.27557693 -126.51683283 57.28226548 C-131.96319623 57.28617494 -137.40943517 57.29535737 -142.85575867 57.31719017 C-147.98403727 57.33758109 -153.11214034 57.34382848 -158.24045563 57.33932304 C-160.12057194 57.34014707 -162.00069424 57.34609713 -163.88077545 57.35761642 C-166.45307948 57.37260138 -169.02472579 57.36893187 -171.5970459 57.36076355 C-172.33636903 57.36950207 -173.07569217 57.3782406 -173.83741903 57.38724393 C-182.1271765 57.31637263 -189.61209136 54.30208157 -195.59765625 48.43359375 C-201.37389468 42.08966604 -203.54042404 36.17220009 -203.29296875 27.59375 C-202.90856151 24.19046455 -201.94582133 21.81063081 -200 19 C-199.01 18.34 -198.02 17.68 -197 17 C-208.385 16.505 -208.385 16.505 -220 16 C-220 15.67 -220 15.34 -220 15 C-198.92964594 14.9533191 -177.85930039 14.91803036 -156.78890514 14.89637566 C-147.00598105 14.88605462 -137.22308905 14.87197851 -127.44018555 14.84912109 C-118.91532489 14.82921251 -110.39048748 14.81628959 -101.86560422 14.81182301 C-97.35001678 14.80921133 -92.83449584 14.80305563 -88.31892967 14.78853989 C-84.07138057 14.77499594 -79.82392554 14.77077088 -75.57635689 14.77378464 C-74.01504379 14.77323304 -72.45372764 14.76923664 -70.89243317 14.76158905 C-68.7651421 14.75167754 -66.63820892 14.75401703 -64.51091003 14.75949097 C-63.31903171 14.75764738 -62.12715338 14.75580379 -60.89915752 14.75390434 C-58 15 -58 15 -55 17 C-54.26953125 19.3828125 -54.26953125 19.3828125 -53.8125 22.125 C-53.65394531 23.03507812 -53.49539062 23.94515625 -53.33203125 24.8828125 C-53.22246094 25.58148438 -53.11289063 26.28015625 -53 27 C-47.69258198 26.5230042 -43.87179518 25.1636476 -39.375 22.4375 C-37.99737322 21.63192256 -36.61833558 20.82875539 -35.23828125 20.02734375 C-34.44244629 19.56312012 -33.64661133 19.09889648 -32.82666016 18.62060547 C-29.41987681 16.66739871 -25.98480923 14.76946287 -22.54296875 12.87890625 C-21.88907166 12.51969589 -21.23517456 12.16048553 -20.5614624 11.79039001 C-17.89410447 10.32625709 -15.22596064 8.86356124 -12.55755615 7.40133667 C-10.66381807 6.36285503 -8.77127053 5.32223234 -6.87890625 4.28125 C-5.7710376 3.67345703 -4.66316895 3.06566406 -3.52172852 2.43945312 C-1.13749704 1.22535041 -1.13749704 1.22535041 0 0 Z " fill="#FBFBFB" transform="translate(284,177)"/>
<path d="M0 0 C8.44037418 -0.06942772 16.8806296 -0.12277414 25.32121849 -0.15543652 C29.24028972 -0.17111071 33.15916599 -0.19238048 37.078125 -0.22631836 C40.85824125 -0.25885001 44.63816967 -0.2768398 48.41841507 -0.28463173 C49.86257511 -0.29018645 51.30672456 -0.30103321 52.7508049 -0.31719017 C54.76915257 -0.33887964 56.78768817 -0.34022467 58.80615234 -0.34057617 C59.95642914 -0.34723801 61.10670593 -0.35389984 62.2918396 -0.36076355 C63.18553253 -0.24171158 64.07922546 -0.12265961 65 0 C67.15777431 3.23666147 67.22610138 3.5617305 66.71484375 7.14453125 C66.6051123 7.94197754 66.49538086 8.73942383 66.38232422 9.56103516 C66.25615723 10.36589355 66.12999023 11.17075195 66 12 C65.83201904 13.08547119 65.83201904 13.08547119 65.66064453 14.19287109 C65.31050491 16.36075681 64.93935519 18.52410748 64.5625 20.6875 C63.65300361 26.01283354 62.79021869 31.33356965 62.0625 36.6875 C61.14393316 43.22553459 60.09245036 49.73883571 59 56.25 C58.8337915 57.27569092 58.66758301 58.30138184 58.49633789 59.3581543 C58.25065063 60.79735229 58.25065063 60.79735229 58 62.265625 C57.855625 63.12961914 57.71125 63.99361328 57.5625 64.88378906 C57 67 57 67 55 69 C52.26060486 69.24723816 52.26060486 69.24723816 48.73022461 69.24291992 C47.41223373 69.24599655 46.09424286 69.24907318 44.73631287 69.25224304 C43.29165473 69.24534581 41.84699831 69.23807888 40.40234375 69.23046875 C38.92786194 69.22927708 37.45337936 69.22882376 35.97889709 69.2290802 C32.88781995 69.227515 29.79685857 69.21922186 26.70581055 69.20581055 C22.73534247 69.18880575 18.76500153 69.1849966 14.7945013 69.18575573 C11.74999265 69.18548438 8.70551201 69.18000909 5.66101265 69.17275429 C4.19652074 69.1695631 2.73202564 69.16759917 1.26753044 69.16686058 C-0.7748643 69.16470263 -2.8172473 69.15517366 -4.85961914 69.14526367 C-6.02384903 69.14145187 -7.18807892 69.13764008 -8.3875885 69.13371277 C-11 69 -11 69 -12 68 C-12.64467836 60.68541667 -11.45586042 53.65483344 -10.0625 46.5 C-9.88009766 45.51257813 -9.69769531 44.52515625 -9.50976562 43.5078125 C-8.1534169 36.30683379 -8.1534169 36.30683379 -7 34 C-6.67465441 32.15144551 -6.39011757 30.29564858 -6.125 28.4375 C-5.30103567 22.92800719 -4.4352598 17.4290476 -3.5 11.9375 C-3.38156738 11.21167725 -3.26313477 10.48585449 -3.14111328 9.73803711 C-2.52094068 6.14364463 -1.71971264 3.20327378 0 0 Z " fill="#020202" transform="translate(83,52)"/>
<path d="M0 0 C29.7 0.495 29.7 0.495 60 1 C60.66 3.31 61.32 5.62 62 8 C64.57211322 9.28605661 66.56906966 9.21043941 69.4453125 9.31640625 C70.52167969 9.35830078 71.59804687 9.40019531 72.70703125 9.44335938 C74.39892578 9.50233398 74.39892578 9.50233398 76.125 9.5625 C77.26066406 9.60568359 78.39632812 9.64886719 79.56640625 9.69335938 C82.37747768 9.7996604 85.18863945 9.90169405 88 10 C87.04782593 10.91495239 87.04782593 10.91495239 86.07641602 11.84838867 C82.55040352 15.50209216 81.68770829 19.20126399 81.5625 24.1875 C81.71211075 31.12569849 84.00789023 36.70172086 88.6796875 41.8515625 C92.1269643 44.96177223 95.7470556 47.10980249 100 49 C101.32 49.66 102.64 50.32 104 51 C69.68 51 35.36 51 0 51 C0 34.17 0 17.34 0 0 Z " fill="#FEFEFE" transform="translate(0,183)"/>
<path d="M0 0 C2.3671875 0.15625 2.3671875 0.15625 5 1 C6.6953125 3.03125 6.6953125 3.03125 8.125 5.5 C10.17906622 9.26617458 10.17906622 9.26617458 14 11 C16.23475266 11.23994565 18.47407637 11.43819577 20.71484375 11.61328125 C22.0541115 11.72764013 23.39330235 11.84290259 24.73242188 11.95898438 C26.83633074 12.13850549 28.94006868 12.31269366 31.0456543 12.47143555 C33.08297989 12.62719876 35.11725817 12.80581816 37.15234375 12.98828125 C38.36913818 13.08665283 39.58593262 13.18502441 40.83959961 13.28637695 C44.51795502 14.116955 45.79769471 14.96940423 48 18 C49.94882217 24.02275481 49.18597174 30.8519293 49.18530273 37.13452148 C49.18746339 39.3991246 49.20556737 41.66321898 49.22460938 43.92773438 C49.29198478 60.82807832 48.34881903 80.10170191 36 93 C29.70147856 99.23541 24.75778978 103.14472347 15.625 103.1875 C13.74957054 103.13958757 11.87425348 103.08188486 10 103 C9.86044234 97.9340571 10.66596566 95.50135194 13 91 C13.64994223 89.13349924 14.27210055 87.25722269 14.875 85.375 C16.20727506 81.26210539 17.670117 77.28509597 19.375 73.3125 C21.50089123 68.29910542 23.45557194 63.24283462 25.3125 58.125 C25.5791748 57.41126221 25.84584961 56.69752441 26.12060547 55.9621582 C27.59738236 51.82747419 28.30043883 48.45767379 28 44 C26.81277344 43.63003906 25.62554687 43.26007813 24.40234375 42.87890625 C18.28746321 40.83901564 12.3844282 38.30379694 6.46801758 35.7565918 C4.54445382 34.9297428 2.61714697 34.11208849 0.68945312 33.29492188 C-0.5392963 32.76877484 -1.76782054 32.24210153 -2.99609375 31.71484375 C-4.10138428 31.24167725 -5.2066748 30.76851074 -6.34545898 30.28100586 C-9 29 -9 29 -11 27 C-12.079679 20.823458 -8.84122195 15.97579076 -6.0625 10.6875 C-5.59392578 9.76904297 -5.12535156 8.85058594 -4.64257812 7.90429688 C-1.19744966 1.19744966 -1.19744966 1.19744966 0 0 Z " fill="#F9F9F9" transform="translate(191,77)"/>
<path d="M0 0 C4.2470444 7.91494638 5.29610296 14.25878071 5.1953125 23.08984375 C5.1924826 24.03436905 5.18965271 24.97889435 5.18673706 25.95204163 C5.17560684 28.94732724 5.1505156 31.94230586 5.125 34.9375 C5.11496095 36.9772092 5.10583672 39.01692312 5.09765625 41.05664062 C5.07569096 46.0378774 5.04121076 51.01888678 5 56 C-0.53179027 56.07462464 -6.06328205 56.12882498 -11.59545898 56.16479492 C-13.4740917 56.17980333 -15.35268984 56.20021652 -17.23120117 56.22631836 C-19.94458593 56.26305386 -22.6575041 56.27980607 -25.37109375 56.29296875 C-26.19959335 56.30845261 -27.02809296 56.32393646 -27.88169861 56.33988953 C-36.61830689 56.34236363 -43.79495026 54.13415685 -50.203125 48.09765625 C-53.84733921 43.84343227 -56.59545511 38.9593338 -57.359375 33.37109375 C-57 31 -57 31 -55.390625 29.41796875 C-54.68421875 29.01191406 -53.9778125 28.60585937 -53.25 28.1875 C-52.55390625 27.76855469 -51.8578125 27.34960938 -51.140625 26.91796875 C-49 26 -49 26 -45 26 C-44.76925781 26.51949219 -44.53851563 27.03898437 -44.30078125 27.57421875 C-42.1352693 32.20481941 -39.97154826 35.63945916 -36 39 C-30.27155171 40.90948276 -24.22437495 40.91185715 -18.6875 38.375 C-12.99105897 35.11332812 -9.32634184 30.1219522 -7 24 C-6.3386221 18.14208141 -7.15242646 14.86271243 -10.22265625 9.859375 C-11 8 -11 8 -10.83203125 5.90625 C-9.80186806 3.54606391 -8.8781366 2.94787009 -6.625 1.75 C-5.71621094 1.24726563 -5.71621094 1.24726563 -4.7890625 0.734375 C-3 0 -3 0 0 0 Z " fill="#070707" transform="translate(295,178)"/>
<path d="M0 0 C4.40704629 3.31757202 8.8621188 6.78891458 11 12 C11.1875 15.3125 11.1875 15.3125 11 18 C6.95453439 19.13936465 4.85991442 18.86473172 1.0625 17.125 C-2.64481381 15.51794319 -5.94647022 14.42668735 -10 14 C-10.3892854 16.33571239 -10.71579151 18.65083921 -11 21 C-11.103125 21.67160156 -11.20625 22.34320312 -11.3125 23.03515625 C-11.59422279 26.08128393 -11.55646567 28.32123418 -9.578125 30.734375 C-7.78420041 32.28297657 -5.95220954 33.65811721 -4 35 C-3.195625 35.61875 -2.39125 36.2375 -1.5625 36.875 C-1.046875 37.24625 -0.53125 37.6175 0 38 C-0.3125 40.375 -0.3125 40.375 -1 43 C-4.28599086 45.19066057 -5.195414 45.40712758 -9 45 C-11.41601562 43.96191406 -11.41601562 43.96191406 -13.90625 42.515625 C-15.26943359 41.73058594 -15.26943359 41.73058594 -16.66015625 40.9296875 C-17.59730469 40.37539063 -18.53445312 39.82109375 -19.5 39.25 C-20.43714844 38.71117187 -21.37429687 38.17234375 -22.33984375 37.6171875 C-33.63404923 31.04892616 -33.63404923 31.04892616 -37 26 C-37.92642773 19.56845362 -37.9769054 13.60641815 -34.4375 8 C-26.14215417 -2.61259032 -12.15826045 -6.97974211 0 0 Z " fill="#080808" transform="translate(225,3)"/>
<path d="M0 0 C4.29 0 8.58 0 13 0 C12.938125 1.85625 12.87625 3.7125 12.8125 5.625 C12.82814548 12.2821524 14.05749072 15.75864314 18.4375 20.8125 C23.36987993 25.02306824 29.24186838 24.39846485 35.5078125 24.33984375 C40.42482853 23.86134219 43.50336946 22.4614 47 19 C50.97786846 13.90016864 51.51915402 9.6554556 51.82421875 3.2578125 C52 1 52 1 53 0 C54.83115883 -0.09851171 56.66619933 -0.12972629 58.5 -0.125 C59.5003125 -0.12757813 60.500625 -0.13015625 61.53125 -0.1328125 C64 0 64 0 65 1 C65.76274204 8.88166776 63.698422 14.09771244 60 21 C59.4225 22.093125 58.845 23.18625 58.25 24.3125 C52.54266836 31.12959056 43.69588226 35.48109806 35.1875 37.75 C23.81442658 38.64200576 15.22795694 38.22187935 6 31 C0.21017678 25.32342515 -3.10638458 19.70861632 -3.375 11.4375 C-3.26391666 6.95713845 -2.48212904 3.8266156 0 0 Z " fill="#0A0A0A" transform="translate(84,196)"/>
<path d="M0 0 C53.46 0 106.92 0 162 0 C162 0.33 162 0.66 162 1 C136.59 1 111.18 1 85 1 C85.495 2.485 85.495 2.485 86 4 C83.35541621 5.32229189 81.32238699 5.09677194 78.375 5.0625 C77.37210937 5.05347656 76.36921875 5.04445312 75.3359375 5.03515625 C74.56507813 5.02355469 73.79421875 5.01195312 73 5 C72.97421875 5.71285156 72.9484375 6.42570313 72.921875 7.16015625 C72.48031439 14.61650925 71.58472919 19.44685433 66.2265625 24.7578125 C60.54132284 29.30177728 55.393631 29.72933164 48.25 29.390625 C42.83479192 28.73975864 39.58864996 27.63158645 35.6875 23.625 C32.18952899 18.18371176 31.69687857 14.36555008 32 8 C32.33 6.68 32.66 5.36 33 4 C29.04 4 25.08 4 21 4 C21.66 3.34 22.32 2.68 23 2 C11.615 1.505 11.615 1.505 0 1 C0 0.67 0 0.34 0 0 Z " fill="#F3F3F3" transform="translate(64,192)"/>
<path d="M0 0 C1.77305664 0.25587405 3.54344608 0.53027739 5.3125 0.8125 C6.29863281 0.96332031 7.28476563 1.11414063 8.30078125 1.26953125 C11 2 11 2 12.91796875 3.07421875 C14.77371041 6.37703693 13.83007735 9.48808276 13 13 C11.64543006 17.75085284 10.1179961 22.43660329 8.5625 27.125 C8.15451172 28.37410156 7.74652344 29.62320313 7.32617188 30.91015625 C6.22515942 34.2760573 5.11586914 37.63899901 4 41 C3.47007446 42.65298096 3.47007446 42.65298096 2.92944336 44.33935547 C2 47 2 47 1 48 C-5.81819953 48.79676278 -10.48932387 48.13300709 -16 44 C-18.39822407 41.08042287 -18.28910345 37.96283249 -18.26098633 34.25976562 C-17.78916886 30.17450605 -15.96613025 26.75629496 -14.125 23.125 C-13.76019531 22.36703125 -13.39539063 21.6090625 -13.01953125 20.828125 C-10.32836999 15.32836999 -10.32836999 15.32836999 -8 13 C-8 11.68 -8 10.36 -8 9 C-40.67 8.505 -40.67 8.505 -74 8 C-74 7.67 -74 7.34 -74 7 C-73.21295181 6.98969254 -72.42590363 6.97938507 -71.61500549 6.96876526 C-64.21301893 6.87095812 -56.81111932 6.76846814 -49.40927219 6.66066074 C-45.60352595 6.60539706 -41.79777208 6.55197171 -37.99194336 6.50268555 C-34.32200665 6.45509259 -30.65216609 6.40275191 -26.98234367 6.34705925 C-25.57927773 6.32661263 -24.1761854 6.30790343 -22.7730732 6.29092598 C-20.81423074 6.26693313 -18.85547299 6.23629801 -16.89672852 6.20532227 C-15.77976089 6.18977798 -14.66279327 6.1742337 -13.51197815 6.15821838 C-11.06138999 6.28180962 -11.06138999 6.28180962 -10 5 C-8.88625 4.896875 -7.7725 4.79375 -6.625 4.6875 C-2.95893335 4.38660372 -2.95893335 4.38660372 -1.2734375 1.95703125 C-0.85320312 1.31121094 -0.43296875 0.66539062 0 0 Z " fill="#F4F4F4" transform="translate(181,131)"/>
<path d="M0 0 C0.33 0 0.66 0 1 0 C1 9.9 1 19.8 1 30 C-9.56 30 -20.12 30 -31 30 C-28.73164975 28.86582487 -26.45621845 27.74493878 -24.16015625 26.66796875 C-16.27893226 22.93203974 -16.27893226 22.93203974 -10 17 C-9.51144531 16.41476563 -9.02289063 15.82953125 -8.51953125 15.2265625 C-4.73399678 10.49698117 -2.21325185 5.62426353 0 0 Z " fill="#F6F6F6" transform="translate(299,204)"/>
<path d="M0 0 C19.47 0 38.94 0 59 0 C59 1.32 59 2.64 59 4 C39.53 4 20.06 4 0 4 C0 2.68 0 1.36 0 0 Z " fill="#171717" transform="translate(12,159)"/>
<path d="M0 0 C19.14 0 38.28 0 58 0 C58 1.32 58 2.64 58 4 C39.19 4 20.38 4 1 4 C0.67 2.68 0.34 1.36 0 0 Z " fill="#171717" transform="translate(0,180)"/>
<path d="M0 0 C18.81 0 37.62 0 57 0 C57 1.32 57 2.64 57 4 C38.19 4 19.38 4 0 4 C0 2.68 0 1.36 0 0 Z " fill="#202020" transform="translate(37,142)"/>
<path d="M0 0 C17.82 0 35.64 0 54 0 C53.67 1.32 53.34 2.64 53 4 C35.84 4 18.68 4 1 4 C0.67 2.68 0.34 1.36 0 0 Z " fill="#1F1F1F" transform="translate(16,85)"/>
<path d="M0 0 C14.85 0 29.7 0 45 0 C45.495 1.98 45.495 1.98 46 4 C30.82 4 15.64 4 0 4 C0 2.68 0 1.36 0 0 Z " fill="#1B1B1B" transform="translate(29,67)"/>
<path d="M0 0 C19.14 0 38.28 0 58 0 C58 0.99 58 1.98 58 3 C38.86 3 19.72 3 0 3 C0 2.01 0 1.02 0 0 Z " fill="#000000" transform="translate(7,102)"/>
<path d="M0 0 C2 2 2 2 2.125 4.390625 C2.08375 5.33421875 2.0425 6.2778125 2 7.25 C1.90852616 11.60072459 2.24708429 14.94638241 4 19 C3.01 19 2.02 19 1 19 C0.814375 18.236875 0.62875 17.47375 0.4375 16.6875 C-1.57018923 12.93399405 -4.12985819 12.52041285 -8 11 C-10.31282587 7.53076119 -10.42478586 6.07794425 -10 2 C-7.65131237 -2.28290097 -4.2151329 -0.99630414 0 0 Z " fill="#101010" transform="translate(246,56)"/>
<path d="M0 0 C5.47932789 1.54545146 10.11429181 4.15543212 15 7 C13.66666667 9 12.33333333 11 11 13 C10.34 13 9.68 13 9 13 C8.401875 12.071875 7.80375 11.14375 7.1875 10.1875 C4.56907196 6.37207628 2.51238822 4.4772134 -2.09765625 3.6015625 C-4.05866558 3.3456283 -6.02942354 3.166998 -8 3 C-8 2.67 -8 2.34 -8 2 C-6.865625 1.855625 -5.73125 1.71125 -4.5625 1.5625 C-1.19222799 1.38828522 -1.19222799 1.38828522 0 0 Z " fill="#E3E3E3" transform="translate(193,35)"/>
<path d="M0 0 C1.16945792 0.80847729 2.33550461 1.62189112 3.5 2.4375 C4.47453125 3.11619141 4.47453125 3.11619141 5.46875 3.80859375 C5.9740625 4.20175781 6.479375 4.59492187 7 5 C7 5.33 7 5.66 7 6 C-8.51 6 -24.02 6 -40 6 C-40 5.67 -40 5.34 -40 5 C-26.8 4.67 -13.6 4.34 0 4 C0 2.68 0 1.36 0 0 Z " fill="#C9C9C9" transform="translate(145,119)"/>
<path d="M0 0 C0.66 0.33 1.32 0.66 2 1 C1.79503906 1.64066406 1.59007812 2.28132813 1.37890625 2.94140625 C-0.18827364 7.97287851 -1.43042174 12.75988003 -2 18 C-2.66 17.67 -3.32 17.34 -4 17 C-3.85764543 15.27054347 -3.71095618 13.54144346 -3.5625 11.8125 C-3.48128906 10.84957031 -3.40007812 9.88664062 -3.31640625 8.89453125 C-3.02120361 6.19397381 -2.70400608 3.62487034 -2 1 C-1.34 0.67 -0.68 0.34 0 0 Z " fill="#CBCBCB" transform="translate(145,95)"/>
<path d="M0 0 C1.27875 -0.061875 2.5575 -0.12375 3.875 -0.1875 C4.95394531 -0.23970703 4.95394531 -0.23970703 6.0546875 -0.29296875 C6.69664062 -0.19628906 7.33859375 -0.09960938 8 0 C8.66 0.99 9.32 1.98 10 3 C5.82412255 4.39195915 3.86525224 2.82323219 0 1 C0 0.67 0 0.34 0 0 Z " fill="#E6E6E6" transform="translate(218,0)"/>
<path d="M0 0 C1.73662334 3.22515763 2.8905928 6.51329166 4 10 C3.01 10 2.02 10 1 10 C-0.83691257 6.21812119 -1.15837626 4.05431692 0 0 Z " fill="#1A1A1A" transform="translate(246,65)"/>
<path d="M0 0 C0.66 1.65 1.32 3.3 2 5 C0.35 4.67 -1.3 4.34 -3 4 C-3 3.34 -3 2.68 -3 2 C-3.66 1.67 -4.32 1.34 -5 1 C-3 0 -3 0 0 0 Z " fill="#303030" transform="translate(295,178)"/>
</svg>
